<?xml version="1.0" encoding="UTF-8"?>
<svg xmlns="http://www.w3.org/2000/svg" version="1.2" viewBox="0 0 384 112" width="384" height="112">
  <title>01J74G87G115BB4P624H3K1KB8-svg</title>
  <style>
		.s0 { fill: #ffffff } 
	</style>
  <path fill-rule="evenodd" class="s0" d="m97.2 93.5c-1.1 0.7-2.5 0.1-3.4-0.5-12-2.2-24.7 1.1-31.6 6.8q-2.8 0.9-5.7 0.8c-5.2-0.3-6.1-7.3-8.7-10.5-0.9-0.2-1.4 0.3-2.3 0.1 0.4 2.8 1.8 5.3 3.8 7.3-0.4 0.6-0.7 0.8-0.7 1.5 0.3 0.3 1.4 0 1 1.1 1.9-0.8 3.8 1.9 3.6 3.7q-0.8 0-1.5-0.3-0.8-0.1-1.3-0.7c-3.4-0.7-5.2-3.5-8-4.8q-1.1-0.4-2.2-0.5-1.4-0.8-2.9-1.1c-5.5-0.9-11.3-1.4-16.1-3.1-0.2-0.1-0.7-0.3-0.7-0.6q-0.7 0.1-1.5 0.3c-2.8-2-8.1-2.3-8.8-5.7-0.3-1.1-0.2-2.4 0.3-3.4 0.6-1.1 1.4-2 2.4-2.7 1.1-0.4 2.1-1.5 3.5-2 2.6-1.1 5.4-1.5 8.3-1.7 1.7-1.8 2.3-4.8 3.1-7.7 1.9-0.8 3.3-2.2 4.2-4.1-2.3-4.9-5.7-9.1-7.7-14.3 0.6-0.4 0.3 0.1 0.6 0.4q2.6 3.3 4.8 7c0.6 0.3 1.5 0.3 2.1 0-1.4-3-1.4-6.5-0.6-10.5-0.1-0.5-0.8-0.4-0.8-0.8 0.4-1.7 0.2-3.7 0.8-5 1.6 0.8 3-0.4 4.4 0 0 0.3 0.3 0.3 0.1 0.8 0.9 0.2 0.5-0.8 1.2-0.8q0.2 0.2 0.2 0.3 0 0.3-0.2 0.5 0.7 0 1.3-0.2c0-0.4 0-0.7 0.1-1q-3.2-1-6.5-1.4c0.3-0.3-0.1-1.1 0-1.4 0.2-0.8 0.7-0.8 1.1-1.4 0.8-1.1 0.6-2.5 1.1-3.9 0.8-1.8 2.6-3.1 3.1-4.5-1.2-1.4-2.6 0.3-4.3 0 0.1-0.4 0.6-0.6 0.7-1.1 0-0.4-0.4-0.3-0.4-0.7-0.8 0.3-1.4-0.2-2.3 0.4q-0.2 0.8-0.7 1.4-0.4 0.3-1.1 0.2-0.4-0.2-0.7-0.6c-0.6 0.3-1 0.4-1.4-0.2q-0.3 0.3-0.6 0.6c0.1 0.3 0.1 0 0.4 0 0 0.6-0.3 1.1-0.4 1.7 0.1 0.5 0.6-0.3 1 0-0.1 0.6-0.9 0.6-0.7 1.6-0.6-0.2-0.6 0.4-1.1 0.4-0.2 0.7 0.3 0.8 0.1 1.6q-0.6 0.3-1.3 0.3-0.7-0.2-1.3-0.5c0.8-1.8 2-3.1 2.8-4.8-2-0.1-1.2 2.4-2.6 2.7v-0.5c-0.8 1.4-2.8 1.5-3.6 2.5-0.5 0-0.3-0.5-0.5-0.6-0.6 0-0.6 0.4-0.9 0.7-0.1 0-0.3-0.7-0.5-0.1-0.4-0.3 0.4-1.1-0.6-1.1q0-0.2 0-0.3 0-0.3 0.2-0.5c-0.3-0.3-0.6 0.6-1.1 0.5 0-0.9-0.8-0.5-1.4-0.5 0-0.6 0.6-0.6 0.8-1.1-0.6-0.1-0.5 0.5-0.9 0.3-0.5-0.4-0.4-0.9-1.1-1 0.1-0.2 0.3-0.4 0.3-0.7 0-0.3-0.6 0-1-0.1q0.4-0.5 0.5-0.8c0-0.1-0.5-0.1-0.6-0.1q0-0.7-0.2-1.3-0.3-0.6-0.7-0.9c0.4-0.5 0-1.4 0-2q0.1 0 0.4 0.1c-0.3-0.1-0.9-0.6 0-0.6 0-0.6-0.9-0.1-0.7-0.8 0.6-0.1 0.4 0.3 1 0.2-0.3-0.5-1-0.6-1-1.2q0.3 0.1 0.6 0.3 0.1 0 0.4 0c-0.6-0.5-0.1-1.1-0.3-1.7 0.5 0 0.3 0.6 0.5 0.9 0.5-1.4-1.4-1.9-0.8-3.6 0.3 0.3 0.6 0 0.6-0.3 0.5 0 0.3 0.6 0.7 0.9 0.3-0.4-0.4-1-0.4-1.7 0.8 0 0.8 0.5 1.3 0.7-0.5-0.8 0-1.1 0-2.4 0.5 0 0.5-0.9 0.9-0.4 0.5-0.2-0.3-0.5-0.1-0.8 0.6 0 0.9 0.3 1.4 0.6-0.2-0.6 0.4-0.6 0.3-1.4 0.3 0 0.1 0.3 0.6 0.2 0.4-0.2-0.3-0.5 0-0.9 0.4 0 0.8 0 0.6-0.5 0.5-0.2 0.5 0.5 0.8 0.5 0.4 0 0.1-0.8 0.3-1.1 0.1-0.2 0.1 0.1 0.5 0.1 0.1-0.3-0.2-0.6 0.1-1.2 0.6 0.8 0.6-0.3 0.9-0.9q0.2 0.1 0.3 0.1 0 0.2 0 0.3c0.5-0.1 0.7-0.6 0.7-1.1 0.4 0.3 0 1.1 0 1.6 0.4-0.8 1.2-0.9 1.5-1.6 0.3 0 0.3 0.5 0.3 0.8 0.2 0.3 0.8-0.5 1-0.8 0.4 0 0.3 0.5 0.4 0.5 0.6 0 0.6-0.5 1.1-0.6 0.5-0.2 0.3 0.3 0.5 0.4 0.4-0.6 1.7-1.5 2.1-0.4q1.3-0.8 2.8-1.1 0.2 0.3 0.2 0.8c0.9-0.2 1.5 0 2.3-0.3 0 0.3-0.2 0.3-0.2 0.4 0.3 0.2 0.3-0.3 0.5-0.6 0.3 0.5 0.5 0.2 1.1 0q-0.2 0.2-0.2 0.5c2 0.9 4.2 1.4 5.8 3.1h-0.5c0.8 0.9 2.5 1.8 2.6 2.9 1.9 0.6 0.8 3 2.4 3.6 0.1 2 0.9 3.4 0.3 6 0.1 0.3 0.3 0.3 0.7 0.3-0.3 0.8-1.2 1-1.5 1.6 0 0.1 0.3 0.1 0.5 0.1-0.2 0.3-0.2 0.8-0.8 0.6 0 0.4 0.4 0.2 0.3 0.8q-0.9 0.6-2 1.1c0 0.5 0.4 0.3 0.3 0.8-0.9 0.3-2 0.3-3.1 0.1 0.5 1.4 2.5 0.2 3.5 0.2 0 0.4-0.4 0.3-0.4 0.6 2.8-1.4 6.2-1.4 9.1-2.3 1.4-1.9 3.7-4.4 7.1-3.3 0.4-0.1 1-0.1 1.1-0.6 7.5-0.6 15.5-1.8 20.8-5.1-1.4 2.2-7.5 2.6-5.1 6.5 0.4-0.3 1.2-0.1 1.7-0.3 1.8 2 6.9 0 8.2 2.8-2.4-1.7-5.6-0.8-8.5-1.9-4.7 1.7-9 3.6-13.8 5.4q-0.3 1-0.2 1.9-1.5 2.2-3.7 3.7c-1.4-0.1-2.9-0.1-4.3-0.3-0.5 1.7-2.4 2-3.3 3.3-0.3-0.4-0.4 0-0.9 0-0.5 0.1-0.5 0.4-0.9 0.6-1 2.5-1 5.6-1.4 8.2-0.5 2.8-2 4.6-3 6.5q2.8 1.5 5.9 2.3c1.7 0.3 3.3 0 4 1.1-0.6 0.5-1.5-0.3-2.3-0.3 1.4 2.3 5.3 3.7 9.3 4-2 0.8-4.3-0.5-5.7-0.5 0.9 2.4 2.8 3.6 3.5 6.1 1.4 0.1 2.7 0.4 3.9 0.8 1.9 2.4 2.9 5.1 3.6 8q-3.9 0.8-7.6 0.6c-1.7 3-1.4 7.1 0.3 10.2q4.2-1.8 8.8-1.8c3 0 6.4 0.8 8.4-0.8-0.3-2 0.7-3.1 2.8-3.2 1.7-0.2 3.1 0.9 4.8 1.8q1.7 0.9 3.7 1.4c1.8 0.5 2.5 1.3 4 1.9 0 0.4 0.5 0.3 0.6 0.4 1 2 3.1 2.8 3.3 5.8zm-85.8-67.8c0-0.2 0-0.4 0.3-0.4-0.1 0.2-0.1 0.4-0.3 0.4zm74.9-6.9c0.8-2 2.2-3.5 3.1-5.5h0.5c-1.6 4.3-4.3 7.2-6.8 10.6-0.5-2 2.2-3.5 3.2-5.1zm-2.8-1.7c0 0.8-0.1 1.1-0.7 1.1-0.3-0.4 0.1-1.1 0.7-1.1zm-2 2c0-0.7 0.7-0.9 1.3-0.9v0.3c-0.2 0.5-0.6 0.6-1.3 0.6zm-54.5 15.2q0-0.1 0.2-0.1 0.1-0.2 0.5 0 0.1 0 0.3 0 0 0.1 0.1 0.3c-0.4 0-0.9 0.1-1.1-0.2zm1.7 3.9c-2.1-0.9 0.2-3.6 2.1-2.2q0.3 0 0.6-0.1 0.3-0.2 0.4-0.3c0.3 1.4-2.3 1.5-3.1 2.6zm-0.6-3.1c0.2 1.2-0.6 1.4-1.4 1.7-0.1-0.6 0.3-1.7 1.4-1.7zm2.3 3.2q0-0.3 0.2-0.4 0.2 0 0.3 0.1 0.2 0 0.3 0.2c0 0.5-0.3 0.5-0.6 0.5q-0.2-0.2-0.2-0.4zm44.3 3.5q0.2-0.4 0.6-0.5 0.4-0.2 0.7-0.2c0 0.7-0.7 0.7-1.3 0.7zm1.3 0c0.1 0.6-0.3 0.6-0.8 0.7q0-0.7 0.8-0.7zm-1.1 1c-0.5 0.8-1.9 0.7-3.1 0.8 0.4-0.8 2.3-0.9 3.1-0.8zm0.3 1c0-0.8 0.8-0.8 1.2-1 0 0.8-0.6 0.8-1.2 1zm-7.6 2.8c0.2 0.6 0 1-0.3 1.5-1.4 0.5-1.6-0.5-2.2-1.1-4.5-0.1-9 0.6-12.1 2.3-0.7 1.4-1.5 3-2.9 3.9-0.3-0.3 0.9-1.5 1.4-2 1.7-4.2 2.2-8.7 4.2-12.5 0.6 0 1.1 0.3 1.4 0.7 0.3 0.3 0.4 1 0.4 1.4 3.9 1.4 7.3 3 12.3 2.7-0.3 0.6-1.9 0.1-2.8 0.3q0 1.2-0.3 2.6c1.2-0.2 2.4-0.8 3.2-1.7q2.5 0.5 5-0.2c-1.7 1.6-5.6 0-7.3 2.1zm6.2-2.2c0-0.5 0.5-0.3 0.9-0.3 0.2 0.6-0.6 0.1-0.9 0.3zm-51.1 4.3c0.8 0.2 0.5 1.1 0.8 1.7-0.3 0.2-0.5 0.5-1 0.3q-0.3-0.4-0.1-0.9c0.9 0-0.2-0.6 0.3-1.1zm34.4 4.5q-2.3 0.6-4.7 1.6c0 0.4-1.7 1.2-2.4 0.9 0.3-0.6 1.2-0.5 1.8-0.8 1.6-2.2 4.8-2.5 7.6-2.9-0.5 0.7-1.6 0.9-2.3 1.2zm3.4 1.7q-3.3 0.5-6.4 1.4c2.5-1.2 6.8-3.1 10.2-1.9-0.4 1.4-2.6 0.5-3.8 0.5zm1.7 6.2c-2-0.1-3.4-0.8-5.6-0.6 1.1-2.2 4 0 5.6 0.6zm25.1-48.3h0.7q0 0.8-0.4 1.4c-0.5 0-0.2-0.9-0.3-1.4zm-15.7 31.4c0.2-0.3 1-0.4 1 0.2q-0.5 0.1-1-0.2zm-59.9-18.9q0 0 0.2 0-0.2 0-0.2 0z"></path>
  <path class="s0" d="m131.4 49.3l2 1.1 5.3-10.4-1.9-1-0.4 0.3c-0.5 0.5-0.8 0.5-0.9 0.5q-0.8-0.2-1.7-0.6-3.9-1.7-8-2.7-3.4-0.8-7-0.8c-6 0-10.5 1.5-13.6 4.4-1.2 1-2.1 2.4-2.7 3.8-0.6 1.5-0.9 3.1-0.9 4.6 0 2 0.5 3.9 1.4 5.6 1 1.7 2.5 3.1 4.4 4q1.7 0.9 3.7 1.4 3.1 0.6 6.2 0.9l4.3 0.4q2.8 0.2 5.5 1c1.4 0.5 1.6 1.3 1.6 1.9 0 0.7-0.3 1.4-0.7 1.9-0.6 0.7-1.3 1.2-2.1 1.6-3.1 1.5-7.8 1.6-12.9 0-1.9-0.5-3.7-1.4-5.3-2.6q-0.4-0.3-0.6-0.7-0.3-0.5-0.3-1v-0.9l-2-0.9-4.8 10.6 2 1 0.4-0.3c0.4-0.3 0.6-0.4 0.6-0.4q0.8 0.2 1.5 0.6c4.8 2.4 10 3.7 15.3 3.7 2.8 0 5.5-0.3 8.1-1.1 3.5-0.9 6-2.4 7.7-4.4 1.8-2.1 2.8-4.8 2.8-7.6 0-1.7-0.4-3.5-1.2-5.1-0.8-1.5-1.9-2.8-3.3-3.8-1.3-1-2.9-1.7-4.5-2.1q-3.1-0.9-6.4-1.2l-4.4-0.4q-2.8-0.3-5.6-0.8c-1.8-0.6-2-1.5-2-2.2 0-0.7 0.3-1.3 0.8-1.8 0.6-0.7 1.4-1.2 2.3-1.5q2.4-0.7 5-0.7c4 0 7.9 1.1 11.2 3.3 1.2 0.8 1.2 1.3 1.2 1.4q0.1 0.2 0 0.4zm28.8 4.4l0.6 0.1q0.2 0.1 0.4 0.2 0 0 0 0.2v11q0 1.3-0.2 2.6-0.1 0.7-0.6 1.2c-0.9 0.9-2.5 1.4-4.7 1.4q-3.5 0-4.8-1.4-0.4-0.5-0.6-1.2-0.2-1.3-0.2-2.6v-11q0-0.1 0-0.2 0.2-0.1 0.4-0.2l0.6-0.1v-2h-8.5v2l0.6 0.1q0.2 0.1 0.4 0.2 0 0.1 0 0.2v12.3c0 1.5 0.2 2.9 0.7 4.3 0.4 1.3 1.4 2.4 2.6 3.1 2 1.2 4.8 1.8 8.5 1.8 5.2 0 8.6-1.2 10.3-3.5 1-1.3 1.5-3.1 1.5-5.7v-12.3q0-0.1 0-0.2c0 0 0.1-0.1 0.4-0.2l0.6-0.1v-2h-8zm36.4 19.2q-0.8-0.8-1.5-1.7l-8.1-9.6 6.9-5.4 1.3-1.1c0.7-0.6 1.2-0.9 1.3-1q0.3-0.1 0.6-0.2l0.6-0.1v-2h-10.7v2l0.7 0.1-0.1 0.1-7.8 6.3v-6.2q0.2-0.1 0.4-0.2l0.6-0.1v-2h-8.5v2l0.5 0.1c0.4 0.1 0.5 0.2 0.5 0.4v18.6q0 0.1 0 0.2c0 0-0.1 0.1-0.4 0.2l-0.6 0.2v1.9h8.5v-1.9l-0.6-0.2q-0.2 0-0.4-0.2 0-0.1 0-0.2v-5.5l2.4-1.9 6.1 7.3q0.2 0.3 0.4 0.5l-0.7 0.1v2h10.3v-2l-0.7-0.1q-0.5-0.1-1-0.4zm22.1-19.2l0.6 0.2c0.3 0.1 0.4 0.2 0.4 0.4v6.3h-11.2v-6.5q0.2-0.1 0.4-0.2l0.6-0.1v-2h-8.5v2l0.6 0.1c0.3 0.1 0.4 0.2 0.4 0.4v18.9q-0.2 0.1-0.4 0.1l-0.6 0.2v1.9h8.6v-1.9l-0.7-0.2c-0.3 0-0.4-0.1-0.4-0.3v-7.2h11.2v7.4q-0.2 0.1-0.4 0.1l-0.6 0.2v1.9h8.5v-1.9l-0.6-0.2c-0.3 0-0.4-0.1-0.4-0.3v-18.9q0.2-0.1 0.4-0.2l0.6-0.1v-2h-8.5zm12.9 0l0.6 0.2c0.3 0.1 0.4 0.2 0.4 0.4v18.6q0.1 0.1 0 0.2c0 0-0.1 0.1-0.4 0.2l-0.6 0.2v1.9h8.6v-1.9l-0.6-0.2q-0.2 0-0.4-0.2-0.1-0.1 0-0.2v-18.8q0.1-0.2 0.4-0.2l0.6-0.2v-1.9h-8.6zm32.1 7l3.4-6.6-1.6-0.9-0.4 0.4q-0.3 0.2-0.3 0.2-0.5-0.2-0.9-0.3-2.3-1.1-4.7-1.7-2.1-0.4-4.2-0.4c-3.6 0-6.3 0.9-8.1 2.6-0.7 0.7-1.3 1.5-1.7 2.4-0.4 0.9-0.5 1.9-0.5 2.8 0 1.2 0.3 2.4 0.9 3.4 0.6 1.1 1.5 2 2.7 2.5q1.1 0.6 2.2 0.8 1.9 0.4 3.7 0.5l2.5 0.3q1.6 0.1 3.1 0.6c0.6 0.2 0.7 0.5 0.7 0.8q0 0.5-0.3 0.9-0.4 0.5-1.1 0.8c-1.8 0.8-4.4 0.9-7.3 0q-1.7-0.4-3-1.5-0.2-0.1-0.3-0.4-0.1-0.2-0.1-0.5v-0.5l-1.7-0.8-3 6.8 1.6 0.8 0.4-0.3q0.1-0.1 0.2-0.1l0.7 0.3c2.8 1.4 5.9 2.1 9 2.1q2.5 0 4.8-0.6c1.8-0.4 3.4-1.3 4.7-2.7 1.1-1.3 1.7-2.9 1.7-4.6 0-1.1-0.3-2.1-0.7-3.1-0.5-0.9-1.2-1.8-2-2.4q-1.3-0.8-2.7-1.3-1.9-0.5-3.9-0.7l-2.5-0.2q-1.7-0.1-3.2-0.5c-1-0.3-1-0.7-1-0.9q0-0.2 0.1-0.4 0.1-0.3 0.3-0.4 0.5-0.6 1.2-0.8 1.4-0.4 2.8-0.4c2.3 0 4.5 0.6 6.4 1.9 0.5 0.3 0.5 0.5 0.5 0.7v0.5zm24.5-7l0.6 0.1c0.3 0.1 0.4 0.2 0.4 0.4v6.4h-11.2v-6.6q0.2-0.1 0.4-0.1l0.6-0.2v-1.9h-8.5v1.9l0.6 0.2c0.3 0.1 0.4 0.1 0.4 0.4v18.8q-0.2 0.1-0.4 0.2l-0.6 0.2v1.9h8.6v-2l-0.7-0.1c-0.3-0.1-0.3-0.2-0.4-0.4v-7.1h11.2v7.3q-0.2 0.1-0.4 0.2l-0.6 0.1v2h8.6v-1.9l-0.6-0.2c-0.4-0.1-0.5-0.2-0.5-0.4v-18.9q0.2-0.1 0.4-0.1l0.6-0.2v-1.9h-8.5zm29.1 0l0.6 0.1q0.3 0.1 0.5 0.2-0.1 0.5-0.3 0.9l-5.2 11.3-5.1-11.3q-0.2-0.4-0.3-0.9 0.2-0.1 0.4-0.1l0.6-0.2v-1.9h-9.5v2l0.7 0.1q0.3 0 0.5 0.1 0.5 0.8 0.8 1.6l7.7 16.4q0.3 0.5 0.4 1.1-0.1 0.1-0.3 0.1l-0.7 0.1v2h9.3v-2l-0.7-0.1c-0.3 0-0.3-0.1-0.3-0.1q0.1-0.6 0.4-1.1l7.7-16.4q0.3-0.8 0.8-1.6 0.2-0.1 0.5-0.1l0.7-0.1v-2h-9.2zm11.5-0.1l0.6 0.2c0.3 0.1 0.4 0.2 0.4 0.4v18.6q0 0.1 0 0.2-0.2 0.2-0.4 0.2l-0.6 0.2v1.9h8.5v-2l-0.6-0.1q-0.2 0-0.4-0.2c0 0 0 0 0-0.2v-18.9q0.2-0.1 0.4-0.1l0.6-0.2v-1.9h-8.5zm33.6 16q0 0.2-0.1 0.4-0.1 0-0.3 0h-12.8v-15.8q-0.1-0.2 0-0.3 0.1-0.1 0.4-0.1l0.6-0.2v-1.9h-8.6v1.9l0.6 0.2q0.2 0 0.4 0.1 0.1 0.1 0 0.3v18.6q0.1 0.1 0 0.2-0.2 0.1-0.4 0.2l-0.6 0.1v1.9h20.4q0.1 0 0.3 0 0.1 0.2 0.1 0.5l0.2 0.6h2v-7.3h-2zm12.4-15.7c0 0 0.1-0.1 0.4-0.2l0.6-0.1v-1.9h-8.6v1.9l0.6 0.1c0.3 0.1 0.4 0.2 0.5 0.4v18.6q0 0.2 0 0.3-0.2 0.1-0.5 0.2l-0.6 0.1v1.9h8.6v-1.9l-0.6-0.1q-0.2-0.1-0.4-0.2 0-0.1 0-0.3v-18.6q-0.1-0.1 0-0.2z"></path>
</svg>
